<svg width="81" height="75" viewBox="0 0 81 75" fill="none" xmlns="http://www.w3.org/2000/svg">
<path d="M55.4261 74.6046L10.9623 51.5148C6.48989 49.0461 3.14052 44.8957 1.62786 39.9479C0.11521 35 0.55887 29.6459 2.86431 25.0265C5.16976 20.407 9.1547 16.8874 13.97 15.2176C18.7854 13.5478 24.0504 13.8599 28.6432 16.0873L46.0233 25.1207L42.1 32.9283L24.7199 23.9082C22.1446 22.5708 19.1533 22.3303 16.404 23.2398C13.6548 24.1494 11.3727 26.1343 10.0599 28.758C8.74716 31.3818 8.51116 34.4294 9.40388 37.2304C10.2966 40.0314 12.2449 42.3563 14.8202 43.6938L51.6336 62.8132L70.4914 25.3072C71.1735 24.0042 71.5938 22.5756 71.7277 21.1052C71.8616 19.6347 71.7065 18.1518 71.2714 16.7431C70.8363 15.3345 70.13 14.0283 69.1937 12.9009C68.2574 11.7735 67.11 10.8476 65.8184 10.1773C64.5268 9.50697 63.1171 9.10566 61.6715 8.99682C60.2259 8.88798 58.7736 9.0738 57.3993 9.54342C56.025 10.013 54.7565 10.757 53.6677 11.7319C52.5789 12.7068 51.6918 13.893 51.0582 15.2212L48.0242 21.2968L40.3607 17.2997L43.3947 11.2242C44.5574 8.89883 46.1582 6.82957 48.1058 5.13455C50.0534 3.43953 52.3096 2.15193 54.7456 1.34527C57.1816 0.538605 59.7497 0.22868 62.3033 0.433183C64.8569 0.637686 67.3459 1.35261 69.6283 2.53715C71.9107 3.72168 73.9417 5.35263 75.6055 7.33686C77.2692 9.3211 78.533 11.6198 79.3248 14.1016C80.1165 16.5835 80.4207 19.1999 80.22 21.8015C80.0193 24.4031 79.3176 26.939 78.1549 29.2643L55.4261 74.6046Z" fill="#1A140F"/>
</svg>
