<svg width="38" height="35" viewBox="0 0 38 35" fill="none" xmlns="http://www.w3.org/2000/svg">
<path d="M11.577 34.4573L1.10981 13.9046C0.0258808 11.7736 -0.167965 9.29947 0.57085 7.02563C1.30966 4.75179 2.92073 2.86413 5.05024 1.77722C7.18044 0.695008 9.65291 0.501898 11.9253 1.24024C14.1977 1.97859 16.0845 3.5881 17.1717 5.71572L21.2888 13.7573L17.7436 15.5588L13.6305 7.525C13.0236 6.334 11.9685 5.43284 10.6973 5.01978C9.42599 4.60672 8.04269 4.71558 6.85169 5.32243C5.66068 5.92928 4.75953 6.9844 4.34647 8.25567C3.9334 9.52694 4.04227 10.9102 4.64912 12.1012L13.3148 29.1087L30.3282 20.4449C30.9179 20.1444 31.4427 19.7307 31.8726 19.2274C32.3024 18.7241 32.6289 18.1411 32.8334 17.5116C33.038 16.8822 33.1165 16.2186 33.0646 15.5588C33.0126 14.8989 32.8313 14.2558 32.5308 13.6661C32.2303 13.0764 31.8166 12.5516 31.3133 12.1217C30.81 11.6919 30.227 11.3654 29.5975 11.1609C28.9681 10.9563 28.3045 10.8778 27.6447 10.9297C26.9848 10.9816 26.3417 11.163 25.752 11.4635L22.9938 12.8738L21.1923 9.32859L23.9486 7.9242C25.0071 7.34202 26.1719 6.97849 27.3736 6.8552C28.5754 6.73191 29.7897 6.85138 30.9444 7.2065C32.0991 7.56162 33.1707 8.14515 34.0954 8.92245C35.0202 9.69975 35.7794 10.655 36.3279 11.7314C36.8763 12.8078 37.2029 13.9834 37.2881 15.1885C37.3734 16.3935 37.2156 17.6034 36.8242 18.7463C36.4328 19.8892 35.8157 20.9418 35.0096 21.8416C34.2035 22.7414 33.2248 23.47 32.1316 23.9842L11.577 34.4573Z" fill="white"/>
</svg>
