<svg width="45" height="43" viewBox="0 0 45 43" fill="none" xmlns="http://www.w3.org/2000/svg">
<g filter="url(#filter0_d_211_1966)">
<path d="M16.0253 2.27626C19.5294 1.66366 23.1416 2.07509 26.4051 3.4585C29.6686 4.84192 32.4369 7.13518 34.3598 10.0483C36.2827 12.9614 37.2738 16.3634 37.2078 19.8242C37.1419 23.2849 36.0218 26.649 33.9893 29.4908C31.9567 32.3326 29.103 34.5246 25.789 35.7896C22.475 37.0545 18.8496 37.3356 15.3713 36.5972C11.893 35.8588 8.718 34.1342 6.24791 31.6414C3.77782 29.1486 2.12357 25.9997 1.49435 22.5928C0.65079 18.0254 1.70772 13.3191 4.43269 9.5092C7.15767 5.69925 11.3276 3.09755 16.0253 2.27626Z" fill="#0E0060"/>
</g>
<path d="M27.128 12.0877C25.8505 12.5574 10.0889 18.6103 9.85596 18.723C9.08572 19.0874 8.99555 19.5684 9.63804 19.8953C9.70191 19.9291 10.7652 20.2672 12.0089 20.6542L14.2669 21.3568L19.3918 18.1481C22.2135 16.386 24.5768 14.9207 24.6444 14.8981C24.821 14.838 24.9713 14.8418 25.0389 14.9132C25.0878 14.962 25.0915 14.9846 25.0502 15.0559C25.0277 15.1048 23.1528 16.8068 20.891 18.8357C18.6291 20.8684 16.7693 22.5441 16.7618 22.5629C16.7542 22.5817 16.6791 23.5961 16.5927 24.8172L16.4349 27.034L16.6077 27.0115C16.7016 27.0002 16.8482 26.9513 16.9346 26.9025C17.0248 26.8574 17.6109 26.3239 18.2459 25.719C18.8771 25.1141 19.4181 24.6068 19.4444 24.5993C19.4707 24.588 20.4777 25.3019 21.6837 26.1849C22.886 27.0678 23.9644 27.8305 24.0808 27.8831C24.3852 28.0259 24.7233 28.0372 24.945 27.9207C25.1441 27.8155 25.3358 27.5525 25.4184 27.2782C25.4485 27.173 26.1398 23.9906 26.9476 20.2071C28.2965 13.91 28.4204 13.3013 28.4204 12.9744C28.4204 12.6663 28.4092 12.5912 28.3265 12.4296C28.2702 12.3132 28.1687 12.1967 28.071 12.1291C27.8493 11.975 27.4811 11.9562 27.128 12.0877Z" fill="white"/>
<defs>
<filter id="filter0_d_211_1966" x="0.210938" y="0" width="44" height="43" filterUnits="userSpaceOnUse" color-interpolation-filters="sRGB">
<feFlood flood-opacity="0" result="BackgroundImageFix"/>
<feColorMatrix in="SourceAlpha" type="matrix" values="0 0 0 0 0 0 0 0 0 0 0 0 0 0 0 0 0 0 127 0" result="hardAlpha"/>
<feOffset dx="3" dy="2"/>
<feGaussianBlur stdDeviation="2"/>
<feComposite in2="hardAlpha" operator="out"/>
<feColorMatrix type="matrix" values="0 0 0 0 0 0 0 0 0 0 0 0 0 0 0 0 0 0 0.2 0"/>
<feBlend mode="normal" in2="BackgroundImageFix" result="effect1_dropShadow_211_1966"/>
<feBlend mode="normal" in="SourceGraphic" in2="effect1_dropShadow_211_1966" result="shape"/>
</filter>
</defs>
</svg>
