<svg width="19" height="19" viewBox="0 0 19 19" fill="none" xmlns="http://www.w3.org/2000/svg">
<path d="M7.18186 2.2898L4.89551 4.57615L5.41429 5.09494L5.93307 5.61372L7.3412 4.20559L8.74932 2.79747V8.58931V14.3774H9.49044H10.2316V8.58931V2.79747L11.6397 4.20559L13.0478 5.61372L13.5666 5.09494L14.0854 4.57615L11.799 2.2898C10.5391 1.0299 9.50156 -0.00025177 9.49044 -0.00025177C9.47932 -0.00025177 8.44176 1.0299 7.18186 2.2898Z" fill="white"/>
<path d="M0.0111168 14.348L0.0222335 17.1383L0.122284 17.4162C0.381676 18.1203 0.956042 18.6539 1.67493 18.8503C1.89726 18.9133 2.36787 18.917 9.49002 18.917C16.6122 18.917 17.0828 18.9133 17.3051 18.8503C18.024 18.6539 18.5984 18.1203 18.8577 17.4162L18.9578 17.1383L18.9689 14.348L18.98 11.5614H18.2352H17.4941V14.1924C17.4941 17.0938 17.5052 16.9716 17.2606 17.2235C17.0235 17.4681 17.5274 17.4533 9.49002 17.4533C1.45259 17.4533 1.95655 17.4681 1.71939 17.2235C1.47482 16.9716 1.48594 17.0938 1.48594 14.1924V11.5614H0.744824H0L0.0111168 14.348Z" fill="white"/>
</svg>
