<svg width="99" height="100" viewBox="0 0 99 100" fill="none" xmlns="http://www.w3.org/2000/svg">
<g filter="url(#filter0_d_132_2271)">
<path d="M54.5964 11.1602C62.2607 12.2109 69.4414 15.5109 75.2302 20.6428C81.0189 25.7747 85.1559 32.508 87.1177 39.9912C89.0795 47.4743 88.7781 55.3712 86.2517 62.6831C83.7252 69.995 79.0872 76.3934 72.9241 81.0692C66.761 85.745 59.3498 88.4881 51.6276 88.9516C43.9055 89.4151 36.2193 87.5782 29.5412 83.6732C22.8631 79.7682 17.493 73.9704 14.11 67.0133C10.7271 60.0561 9.48333 52.252 10.536 44.5879C11.9472 34.3129 17.3817 25.0191 25.6443 18.7505C33.9069 12.4818 44.321 9.75159 54.5964 11.1602Z" fill="#007BFD"/>
</g>
<path d="M43.577 67.4573L33.1098 46.9046C32.0259 44.7736 31.832 42.2995 32.5708 40.0256C33.3097 37.7518 34.9207 35.8641 37.0502 34.7772C39.1804 33.695 41.6529 33.5019 43.9253 34.2402C46.1977 34.9786 48.0845 36.5881 49.1717 38.7157L53.2888 46.7573L49.7436 48.5588L45.6305 40.525C45.0236 39.334 43.9685 38.4328 42.6973 38.0198C41.426 37.6067 40.0427 37.7156 38.8517 38.3224C37.6607 38.9293 36.7595 39.9844 36.3465 41.2557C35.9334 42.5269 36.0423 43.9102 36.6491 45.1012L45.3148 62.1087L62.3282 53.4449C62.9179 53.1444 63.4427 52.7307 63.8726 52.2274C64.3024 51.7241 64.6289 51.1411 64.8334 50.5116C65.038 49.8822 65.1165 49.2186 65.0646 48.5588C65.0126 47.8989 64.8313 47.2558 64.5308 46.6661C64.2303 46.0764 63.8166 45.5516 63.3133 45.1217C62.81 44.6919 62.227 44.3654 61.5975 44.1609C60.9681 43.9563 60.3045 43.8778 59.6447 43.9297C58.9848 43.9816 58.3417 44.163 57.752 44.4635L54.9938 45.8738L53.1923 42.3286L55.9486 40.9242C57.0071 40.342 58.1719 39.9785 59.3736 39.8552C60.5754 39.7319 61.7897 39.8514 62.9444 40.2065C64.0991 40.5616 65.1707 41.1452 66.0954 41.9225C67.0202 42.6998 67.7794 43.655 68.3279 44.7314C68.8763 45.8078 69.2029 46.9834 69.2881 48.1885C69.3734 49.3935 69.2156 50.6034 68.8242 51.7463C68.4328 52.8892 67.8157 53.9418 67.0096 54.8416C66.2035 55.7414 65.2248 56.47 64.1316 56.9842L43.577 67.4573Z" fill="white"/>
<defs>
<filter id="filter0_d_132_2271" x="9.17212" y="8.79761" width="86.2241" height="86.2242" filterUnits="userSpaceOnUse" color-interpolation-filters="sRGB">
<feFlood flood-opacity="0" result="BackgroundImageFix"/>
<feColorMatrix in="SourceAlpha" type="matrix" values="0 0 0 0 0 0 0 0 0 0 0 0 0 0 0 0 0 0 127 0" result="hardAlpha"/>
<feOffset dx="3" dy="2"/>
<feGaussianBlur stdDeviation="2"/>
<feComposite in2="hardAlpha" operator="out"/>
<feColorMatrix type="matrix" values="0 0 0 0 0 0 0 0 0 0 0 0 0 0 0 0 0 0 0.2 0"/>
<feBlend mode="normal" in2="BackgroundImageFix" result="effect1_dropShadow_132_2271"/>
<feBlend mode="normal" in="SourceGraphic" in2="effect1_dropShadow_132_2271" result="shape"/>
</filter>
</defs>
</svg>
