<svg width="111" height="88" viewBox="0 0 111 88" fill="none" xmlns="http://www.w3.org/2000/svg">
<path fill-rule="evenodd" clip-rule="evenodd" d="M55.1098 58.3427C61.0842 58.3437 65.9282 53.5014 65.9292 47.527C65.9303 41.5527 61.0879 36.7087 55.1136 36.7077C49.1393 36.7067 44.2953 41.549 44.2942 47.5233C44.2932 53.4976 49.1355 58.3416 55.1098 58.3427ZM55.1081 68.328C66.5972 68.33 75.9126 59.0178 75.9146 47.5287C75.9166 36.0397 66.6045 26.7243 55.1154 26.7223C43.6263 26.7204 34.3109 36.0325 34.3089 47.5216C34.3069 59.0107 43.619 68.3261 55.1081 68.328Z" fill="white"/>
<path fill-rule="evenodd" clip-rule="evenodd" d="M101.716 12.5842L85.0735 12.5813L85.0752 2.59595L101.717 2.59883L101.716 12.5842Z" fill="white"/>
<path fill-rule="evenodd" clip-rule="evenodd" d="M25.9885 41.6953L16.0032 41.6936L16.0049 31.7083L25.9903 31.71L25.9885 41.6953Z" fill="white"/>
<path fill-rule="evenodd" clip-rule="evenodd" d="M46.3583 0.0929499C43.2715 0.0924156 40.3579 1.51959 38.4661 3.95883L28.2161 17.1752L7.68627 17.1716C3.55019 17.1709 0.196658 20.5233 0.195942 24.6593L0.188098 69.9825C0.186427 79.6334 8.00863 87.4583 17.6595 87.46L92.5497 87.4729C99.5205 87.4741 105.539 83.3935 108.344 77.4903L92.5515 77.4876L17.6612 77.4746C13.5251 77.4739 10.1728 74.1204 10.1735 69.9843L10.1809 27.1574L30.2533 27.1609C32.054 27.1612 33.7536 26.3287 34.8571 24.9058L46.3566 10.0783L64.7785 10.0815L75.2604 24.7337C76.3538 26.2622 78.1175 27.1692 79.9968 27.1695L100.049 27.173L100.043 65.8393L110.028 65.841L110.035 23.0141C110.036 19.7972 107.428 17.1889 104.212 17.1883L82.1372 17.1845L72.8997 4.27175C71.0253 1.65156 68.0018 0.0966959 64.7802 0.0961383L46.3583 0.0929499Z" fill="white"/>
</svg>
