<svg width="18" height="28" viewBox="0 0 18 28" fill="none" xmlns="http://www.w3.org/2000/svg">
<path d="M11.708 8.78036L8.6004 11.888C8.50293 11.9904 8.38565 12.072 8.25567 12.1278C8.12569 12.1836 7.98573 12.2123 7.84429 12.2123C7.70286 12.2123 7.5629 12.1836 7.43292 12.1278C7.30294 12.072 7.18565 11.9904 7.08818 11.888L0.321003 5.12833C0.219472 5.03031 0.138721 4.91286 0.0835706 4.78295C0.0284198 4.65305 0 4.51335 0 4.37222C0 4.2311 0.0284198 4.0914 0.0835706 3.9615C0.138721 3.83159 0.219472 3.71414 0.321003 3.61611L3.42861 0.508514C3.52664 0.406984 3.6441 0.326227 3.77401 0.271076C3.90391 0.215926 4.0436 0.1875 4.18472 0.1875C4.32585 0.1875 4.46554 0.215926 4.59544 0.271076C4.72535 0.326227 4.84281 0.406984 4.94083 0.508514L11.7005 7.26814C11.8025 7.36565 11.8838 7.48269 11.9396 7.61232C11.9954 7.74195 12.0245 7.8815 12.0252 8.02263C12.0259 8.16376 11.9982 8.30359 11.9437 8.43377C11.8892 8.56396 11.8091 8.68183 11.708 8.78036ZM12.88 9.95232L0.502468 22.3298C0.400937 22.4279 0.320192 22.5453 0.265041 22.6752C0.20989 22.8051 0.181465 22.9448 0.181465 23.0859C0.181465 23.2271 0.20989 23.3668 0.265041 23.4967C0.320192 23.6266 0.400937 23.744 0.502468 23.842L3.52691 26.8665C3.62493 26.968 3.7424 27.0488 3.8723 27.1039C4.00221 27.1591 4.14189 27.1875 4.28302 27.1875C4.42414 27.1875 4.56383 27.1591 4.69373 27.1039C4.82364 27.0488 4.9411 26.968 5.03913 26.8665L17.4091 14.489C17.5106 14.391 17.5914 14.2735 17.6465 14.1436C17.7017 14.0137 17.7301 13.874 17.7301 13.7329C17.7301 13.5917 17.7017 13.452 17.6465 13.3221C17.5914 13.1922 17.5106 13.0748 17.4091 12.9768L14.3846 9.95232C14.2867 9.85195 14.1697 9.7722 14.0405 9.71774C13.9113 9.66328 13.7725 9.63523 13.6323 9.63523C13.4921 9.63523 13.3533 9.66328 13.2241 9.71774C13.0949 9.7722 12.9779 9.85195 12.88 9.95232Z" fill="white"/>
</svg>
