<svg width="46" height="55" viewBox="0 0 46 55" fill="none" xmlns="http://www.w3.org/2000/svg">
<path d="M13.7179 14.1046C12.3061 14.8517 11.4196 16.5256 11.5926 18.1478C11.6266 18.4515 12.3197 20.8879 13.4144 24.5354L15.1821 30.4257L14.1122 29.8716C13.3459 29.4738 12.8616 29.2862 12.4052 29.2234C9.74793 28.8319 7.57523 30.8156 7.68108 33.5138C7.72306 34.5095 8.25199 35.6064 9.02697 36.287C9.69548 36.8664 17.7017 42.0544 18.2035 42.2367C18.4888 42.3318 19.3013 42.535 20.0143 42.692C20.7246 42.8403 21.4367 43.0261 21.5903 43.0942L21.8774 43.2268L22.4902 45.2687C22.8254 46.3857 23.2069 47.4983 23.3291 47.747C24.0972 49.2287 25.7422 50.1142 27.402 49.9396C28.0669 49.8732 38.6955 46.6835 39.2871 46.3728C40.7688 45.6047 41.6544 43.9596 41.4797 42.2999C41.4447 42.025 41.2239 41.1306 40.9777 40.3103C40.7315 39.49 40.5316 38.6654 40.5255 38.4865C40.5168 38.2989 40.7453 37.5074 41.0341 36.7263C41.3202 35.9365 41.5968 35.0831 41.6509 34.8195C41.8637 33.7854 41.8515 33.713 40.0419 27.6831C39.0179 24.2712 38.2864 21.9605 38.1476 21.6882C37.3551 20.1568 35.6778 19.2904 33.9386 19.5175C33.3714 19.5926 32.7065 19.8492 32.1419 20.2184C32.0067 20.3065 31.922 20.2463 31.5712 19.8379C29.9487 17.9183 26.9669 17.9666 25.316 19.9459L24.9958 20.3369L24.5132 20.1868C23.4564 19.8667 22.2042 20.0047 21.185 20.5388L20.8333 20.73L20.1655 18.5048C19.7989 17.2831 19.3938 16.092 19.2717 15.8433C18.2225 13.8372 15.7214 13.0468 13.7179 14.1046ZM15.9172 16.3934C16.1319 16.4431 16.4269 16.6019 16.5866 16.7537C16.8667 17.0216 16.8851 17.0827 18.5349 22.5802C20.1533 27.973 20.2144 28.1449 20.4797 28.4268C20.7983 28.7592 21.3874 28.9154 21.8237 28.7844C22.2425 28.6587 22.636 28.2267 22.7364 27.7686C22.8227 27.3907 22.7922 27.2572 22.3496 25.7825C21.797 23.9412 21.7952 23.6183 22.3118 23.1209C22.68 22.7631 23.0579 22.6592 23.5361 22.763C24.2604 22.9261 24.4201 23.173 24.9622 24.9794C25.5148 26.8206 25.6911 27.0911 26.3962 27.2219C27.1502 27.3571 27.8029 26.933 27.9721 26.1973C28.0585 25.8194 28.0279 25.6859 27.5853 24.2112C27.0328 22.3699 27.031 22.0471 27.5476 21.5496C27.9158 21.1918 28.2936 21.0879 28.7718 21.1917C29.4962 21.3548 29.6559 21.6018 30.198 23.4081C30.6222 24.8217 30.7025 25.0259 30.9512 25.2842C31.2698 25.6167 31.8589 25.7728 32.2952 25.6419C32.9409 25.4481 33.4051 24.5859 33.2139 23.9488C33.0123 23.2769 33.4642 22.4374 34.1361 22.2357C34.5288 22.1179 35.1292 22.2802 35.4626 22.5986C35.7427 22.8665 35.7637 22.9363 37.3638 28.2681C38.3327 31.4968 38.9866 33.8023 38.9892 34.0012C38.9953 34.1801 38.7956 34.8774 38.5504 35.5502C37.5864 38.17 37.5812 38.2477 38.2743 40.7792C38.8784 43.014 38.8897 43.2103 38.3645 43.7104C38.1062 43.9591 37.8296 44.0516 32.5851 45.6255C27.2446 47.2282 27.0675 47.2719 26.6861 47.2056C26.4252 47.1603 26.1869 47.032 26.0054 46.8392C25.7541 46.5722 25.679 46.3854 25.0898 44.422C24.3801 42.0572 24.1636 41.5895 23.5021 41.0651C22.9732 40.634 22.2576 40.3732 20.7339 40.0505C20.0035 39.8987 19.2713 39.7094 19.0863 39.6317C18.6369 39.4337 11.0007 34.401 10.7354 34.1191C9.88275 33.2431 10.7282 31.6862 11.9438 31.9016C12.1245 31.933 13.3401 32.5289 14.6422 33.2226C15.953 33.9136 17.1198 34.5051 17.2402 34.526C17.6128 34.5949 18.2079 34.3593 18.4653 34.0442C18.9767 33.4342 19.091 33.9421 16.5403 25.4427C14.3012 17.9817 14.2515 17.8159 14.3265 17.432C14.4582 16.6981 15.1816 16.2241 15.9172 16.3934Z" fill="white"/>
<path d="M9.53882 16.6263L4.40436 18.1672M10.2866 12.724L5.70926 10.2598M13.6313 11.0806L12.0904 5.94611M17.1815 10.6548L19.6456 6.07741M20.1011 13.4565L25.2356 11.9157" stroke="white" stroke-width="2.75693"/>
</svg>
