<svg width="85" height="61" viewBox="0 0 85 61" fill="none" xmlns="http://www.w3.org/2000/svg">
<path d="M27.5283 50.1896L29.1143 55.1872" stroke="white" stroke-width="4.34406" stroke-miterlimit="10"/>
<path d="M16.8843 45.4176L19.2777 44.6581C20.841 44.1639 22.5365 44.31 23.9922 45.0643C25.4479 45.8187 26.545 47.1196 27.0426 48.6818L27.5218 50.1917" stroke="white" stroke-width="4.34406" stroke-miterlimit="10"/>
<path d="M22.5378 34.4868C22.1493 33.263 21.4944 32.1405 20.6202 31.2C19.746 30.2596 18.6742 29.5246 17.4819 29.048C16.2897 28.5713 15.0066 28.3649 13.725 28.4435C12.4434 28.5221 11.1952 28.8838 10.0701 29.5025C8.56323 30.3311 7.33614 31.5882 6.54424 33.1146C5.75233 34.6411 5.43122 36.3682 5.62157 38.0773C5.81191 39.7864 6.50516 41.4005 7.61352 42.7153C8.72187 44.0301 10.1955 44.9864 11.8477 45.4632C13.5035 45.942 15.2641 45.9187 16.9066 45.3963" stroke="white" stroke-width="4.34406" stroke-miterlimit="10"/>
<path d="M11.6199 28.8291C11.1715 27.4023 11.0986 25.884 11.4084 24.4208C11.7182 22.9576 12.4002 21.5991 13.3885 20.4765C14.3767 19.3539 15.6379 18.5052 17.05 18.0124C18.4621 17.5196 19.9774 17.3994 21.4495 17.6634C22.9217 17.9274 24.3008 18.5666 25.4537 19.5193C26.6066 20.4721 27.4943 21.7061 28.0309 23.1021C28.5676 24.4981 28.735 26.009 28.5171 27.4886C28.2993 28.9683 27.7034 30.3668 26.7871 31.5488" stroke="white" stroke-width="4.34406" stroke-miterlimit="10"/>
<path d="M33.1907 23.5074C34.6407 23.9147 35.9602 24.6916 37.0197 25.7621C38.0792 26.8326 38.8425 28.16 39.2348 29.6143C39.627 31.0685 39.6347 32.5997 39.2572 34.0578C38.8798 35.5159 38.13 36.851 37.0813 37.9322C36.0327 39.0134 34.7212 39.8036 33.2753 40.2255C31.8294 40.6475 30.2987 40.6865 28.8332 40.3389C27.3676 39.9914 26.0175 39.269 24.9151 38.2427C23.8127 37.2164 22.9957 35.9214 22.5443 34.4844" stroke="white" stroke-width="4.34406" stroke-miterlimit="10"/>
<path d="M66.3889 37.8572L67.9749 42.8549" stroke="white" stroke-width="4.34406" stroke-miterlimit="10"/>
<path d="M55.7449 33.0852L58.1382 32.3257C59.7009 31.8336 61.395 31.981 62.8492 32.7356C64.3034 33.4902 65.3993 34.7905 65.8966 36.3515L66.3757 37.8614" stroke="white" stroke-width="4.34406" stroke-miterlimit="10"/>
<path d="M61.3915 22.1563C60.8705 20.5191 59.8759 19.0732 58.5332 18.0012C57.1906 16.9293 55.5603 16.2795 53.8484 16.134C52.1365 15.9885 50.4199 16.3538 48.9156 17.1837C47.4113 18.0136 46.1869 19.2709 45.397 20.7966C44.6071 22.3224 44.2874 24.048 44.4781 25.7554C44.6689 27.4629 45.3615 29.0754 46.4686 30.3893C47.5757 31.7031 49.0474 32.6592 50.6977 33.1367C52.3481 33.6142 54.103 33.5917 55.7406 33.072" stroke="white" stroke-width="4.34406" stroke-miterlimit="10"/>
<path d="M50.4804 16.4966C50.028 15.07 49.9521 13.5507 50.26 12.0861C50.5679 10.6216 51.2492 9.26149 52.2378 8.1379C53.2264 7.0143 54.4887 6.16535 55.9021 5.67345C57.3155 5.18155 58.8321 5.06341 60.3047 5.33048C61.7771 5.59671 63.1567 6.23576 64.3119 7.18666C65.4616 8.14381 66.3462 9.38014 66.8811 10.7772C67.4159 12.1743 67.5831 13.6853 67.3665 15.1655C67.1411 16.6436 66.5427 18.0399 65.6278 19.2225" stroke="white" stroke-width="4.34406" stroke-miterlimit="10"/>
<path d="M72.0511 11.1749C73.4975 11.5849 74.8127 12.3632 75.8683 13.4337C76.9238 14.5041 77.6835 15.8302 78.0731 17.2822C78.4627 18.7343 78.4688 20.2625 78.0909 21.7176C77.713 23.1727 76.964 24.5048 75.9171 25.5838C74.8702 26.6627 73.5613 27.4516 72.1182 27.8732C70.6752 28.2948 69.1474 28.3347 67.6843 27.9891C66.2212 27.6435 64.8729 26.9241 63.771 25.9013C62.6692 24.8785 61.8516 23.5873 61.3982 22.154" stroke="white" stroke-width="4.34406" stroke-miterlimit="10"/>
</svg>
