<svg width="50" height="51" viewBox="0 0 50 51" fill="none" xmlns="http://www.w3.org/2000/svg">
<path d="M32.4429 42.0578L7.0938 29.1322L8.93738 25.5053L30.6687 36.592L39.5231 19.227L35.0855 5.55555L21.414 9.99318L13.4803 25.5412L9.8603 23.6953L18.5577 6.64973L37.695 0.437954L43.9068 19.5753L32.4429 42.0578Z" fill="#282828"/>
<path d="M31.8825 20.5349C30.6529 20.9327 29.3234 20.892 28.1204 20.4195C26.9175 19.947 25.9156 19.0721 25.2855 17.9438C24.6553 16.8154 24.4358 15.5035 24.6644 14.2315C24.8931 12.9595 25.5556 11.8061 26.5393 10.9679C27.5229 10.1296 28.7668 9.65834 30.059 9.63433C31.3511 9.61032 32.6116 10.0351 33.6257 10.8362C34.6398 11.6374 35.3448 12.7653 35.6205 14.028C35.8963 15.2906 35.7257 16.6098 35.1378 17.7607C34.806 18.4157 34.3474 18.9982 33.7885 19.4744C33.2297 19.9507 32.5818 20.3111 31.8825 20.5349ZM29.6872 13.7716C29.4962 13.8323 29.3192 13.9305 29.1665 14.0604C29.0138 14.1902 28.8885 14.3492 28.7979 14.528C28.6115 14.8935 28.578 15.3181 28.7047 15.7084C28.8314 16.0986 29.1079 16.4226 29.4734 16.609C29.8389 16.7954 30.2635 16.8289 30.6538 16.7022C31.0441 16.5756 31.368 16.299 31.5544 15.9335C31.692 15.6647 31.7466 15.3612 31.7114 15.0613C31.6761 14.7615 31.5526 14.4788 31.3566 14.2492C31.1605 14.0197 30.9006 13.8535 30.61 13.7718C30.3193 13.6901 30.0109 13.6965 29.724 13.7904L29.6872 13.7716Z" fill="#282828"/>
<path d="M16.1197 38.2912L11.5016 47.3481L15.1205 49.1934L19.7386 40.1365L16.1197 38.2912Z" fill="#282828"/>
<path d="M22.4716 39.2587L19.702 44.6903L23.3209 46.5356L26.0905 41.104L22.4716 39.2587Z" fill="#282828"/>
<path d="M13.4537 30.09L8.83557 39.147L12.4545 40.9922L17.0726 31.9353L13.4537 30.09Z" fill="#282828"/>
</svg>
