<svg width="25" height="26" viewBox="0 0 25 26" fill="none" xmlns="http://www.w3.org/2000/svg">
<path d="M12.4692 0.8234C12.2079 0.556014 11.8424 0.424041 11.4749 0.464436C11.1075 0.504831 10.7776 0.713253 10.5778 1.03134L5.44117 9.20728H2.44324C1.09388 9.20728 0 10.3266 0 11.7073V22.9573C0 24.338 1.09388 25.4573 2.44324 25.4573L6.10811 25.4573C6.10892 25.4573 6.10972 25.4573 6.11052 25.4573H16.9151C19.7394 25.4573 22.1954 23.476 22.8545 20.6659L24.8971 11.9574C25.4502 9.59933 23.7035 7.33228 21.3334 7.33228H14.6595V4.10005C14.6595 3.43701 14.4021 2.80112 13.9439 2.33228L12.4692 0.8234ZM7.32973 22.9573V10.8244L11.8134 3.68784L12.2162 4.10005V8.58228C12.2162 9.27264 12.7632 9.83228 13.4378 9.83228H21.3334C22.1234 9.83228 22.7057 10.588 22.5213 11.374L20.4788 20.0824C20.0833 21.7685 18.6097 22.9573 16.9151 22.9573H7.32973ZM4.88649 22.9573H2.44324V11.7073H4.88649V22.9573Z" fill="#E0FE02"/>
</svg>
