<svg width="89" height="88" viewBox="0 0 89 88" fill="none" xmlns="http://www.w3.org/2000/svg">
<g filter="url(#filter0_d_180_433)">
<path d="M55.1759 3.4125L10.2941 16.8818C5.01616 18.4657 2.02158 24.0284 3.60552 29.3063L17.0748 74.1881C18.6587 79.4661 24.2214 82.4606 29.4993 80.8767L74.3812 67.4074C79.6591 65.8235 82.6537 60.2608 81.0697 54.9829L67.6004 10.1011C66.0165 4.82313 60.4539 1.82856 55.1759 3.4125Z" fill="#007BFD"/>
</g>
<path d="M32.7181 29.1047C31.3062 29.8519 30.4197 31.5257 30.5927 33.1479C30.6267 33.4516 31.3199 35.888 32.4145 39.5356L34.1822 45.4258L33.1123 44.8718C32.3461 44.4739 31.8617 44.2863 31.4053 44.2235C28.7481 43.832 26.5753 45.8157 26.6812 48.5139C26.7232 49.5096 27.2521 50.6065 28.0271 51.2871C28.6956 51.8665 36.7018 57.0545 37.2036 57.2368C37.489 57.3319 38.3014 57.5352 39.0144 57.6922C39.7247 57.8404 40.4368 58.0262 40.5904 58.0943L40.8775 58.2269L41.4903 60.2689C41.8256 61.3858 42.207 62.4984 42.3292 62.7471C43.0973 64.2288 44.7423 65.1144 46.4021 64.9397C47.067 64.8733 57.6956 61.6836 58.2872 61.3729C59.7689 60.6048 60.6545 58.9598 60.4798 57.3C60.4449 57.0251 60.224 56.1307 59.9778 55.3104C59.7317 54.4901 59.5318 53.6655 59.5256 53.4866C59.5169 53.299 59.7454 52.5075 60.0342 51.7264C60.3204 50.9367 60.5969 50.0832 60.651 49.8196C60.8638 48.7855 60.8516 48.7131 59.042 42.6833C58.0181 39.2713 57.2865 36.9606 57.1478 36.6883C56.3553 35.1569 54.6779 34.2905 52.9388 34.5176C52.3716 34.5927 51.7066 34.8493 51.142 35.2185C51.0068 35.3066 50.9221 35.2464 50.5713 34.8381C48.9489 32.9184 45.967 32.9667 44.3162 34.946L43.9959 35.337L43.5133 35.1869C42.4565 34.8668 41.2043 35.0048 40.1851 35.5389L39.8334 35.7301L39.1656 33.5049C38.799 32.2832 38.394 31.0921 38.2718 30.8434C37.2227 28.8373 34.7216 28.0469 32.7181 29.1047ZM34.9174 31.3935C35.132 31.4432 35.427 31.602 35.5867 31.7538C35.8669 32.0217 35.8852 32.0828 37.535 37.5803C39.1535 42.9732 39.2146 43.1451 39.4799 43.4269C39.7984 43.7593 40.3875 43.9155 40.8238 43.7846C41.2426 43.6589 41.6362 43.2269 41.7365 42.7687C41.8228 42.3908 41.7923 42.2573 41.3497 40.7826C40.7971 38.9413 40.7954 38.6185 41.3119 38.121C41.6801 37.7632 42.058 37.6593 42.5362 37.7631C43.2605 37.9262 43.4203 38.1732 43.9623 39.9795C44.5149 41.8207 44.6912 42.0912 45.3963 42.2221C46.1503 42.3573 46.803 41.9331 46.9722 41.1974C47.0586 40.8196 47.028 40.686 46.5855 39.2113C46.0329 37.3701 46.0311 37.0472 46.5477 36.5497C46.9159 36.1919 47.2937 36.088 47.772 36.1918C48.4963 36.3549 48.656 36.6019 49.1981 38.4082C49.6223 39.8219 49.7026 40.0261 49.9514 40.2843C50.2699 40.6168 50.859 40.7729 51.2953 40.642C51.941 40.4482 52.4052 39.586 52.214 38.949C52.0124 38.277 52.4643 37.4375 53.1363 37.2359C53.5289 37.118 54.1293 37.2803 54.4627 37.5988C54.7429 37.8666 54.7638 37.9364 56.3639 43.2682C57.3329 46.4969 57.9867 48.8024 57.9893 49.0013C57.9955 49.1802 57.7957 49.8775 57.5505 50.5503C56.5865 53.1701 56.5813 53.2478 57.2744 55.7793C57.8785 58.0141 57.8899 58.2104 57.3646 58.7105C57.1063 58.9592 56.8297 59.0518 51.5852 60.6257C46.2447 62.2284 46.0676 62.272 45.6862 62.2057C45.4253 62.1604 45.1871 62.0321 45.0055 61.8393C44.7542 61.5723 44.6791 61.3855 44.0899 59.4221C43.3802 57.0573 43.1637 56.5896 42.5022 56.0652C41.9733 55.6342 41.2577 55.3733 39.7341 55.0506C39.0036 54.8988 38.2715 54.7095 38.0865 54.6319C37.637 54.4338 30.0008 49.4011 29.7355 49.1193C28.8829 48.2432 29.7283 46.6863 30.9439 46.9017C31.1246 46.9331 32.3402 47.529 33.6423 48.2227C34.9531 48.9137 36.1199 49.5052 36.2403 49.5262C36.6129 49.5951 37.2081 49.3594 37.4655 49.0443C37.9768 48.4343 38.0911 48.9422 35.5404 40.4428C33.3014 32.9819 33.2516 32.8161 33.3266 32.4321C33.4583 31.6982 34.1817 31.2243 34.9174 31.3935Z" fill="white"/>
<path d="M28.5388 31.6265L23.4044 33.1673M29.2866 27.7241L24.7093 25.2599M32.6313 26.0807L31.0904 20.9462M36.1815 25.6549L38.6456 21.0775M39.1011 28.4567L44.2356 26.9158" stroke="white" stroke-width="2.75693"/>
<defs>
<filter id="filter0_d_180_433" x="2.18176" y="0.98877" width="86.3116" height="86.3116" filterUnits="userSpaceOnUse" color-interpolation-filters="sRGB">
<feFlood flood-opacity="0" result="BackgroundImageFix"/>
<feColorMatrix in="SourceAlpha" type="matrix" values="0 0 0 0 0 0 0 0 0 0 0 0 0 0 0 0 0 0 127 0" result="hardAlpha"/>
<feOffset dx="3" dy="2"/>
<feGaussianBlur stdDeviation="2"/>
<feComposite in2="hardAlpha" operator="out"/>
<feColorMatrix type="matrix" values="0 0 0 0 0 0 0 0 0 0 0 0 0 0 0 0 0 0 0.2 0"/>
<feBlend mode="normal" in2="BackgroundImageFix" result="effect1_dropShadow_180_433"/>
<feBlend mode="normal" in="SourceGraphic" in2="effect1_dropShadow_180_433" result="shape"/>
</filter>
</defs>
</svg>
