<svg width="44" height="44" viewBox="0 0 44 44" fill="none" xmlns="http://www.w3.org/2000/svg">
<g filter="url(#filter0_d_166_3976)">
<path d="M15.8144 2.46376C19.3184 1.85116 22.9306 2.26259 26.1942 3.646C29.4577 5.02942 32.2259 7.32268 34.1488 10.2358C36.0717 13.1489 37.0629 16.5509 36.9969 20.0117C36.931 23.4724 35.8109 26.8365 33.7783 29.6783C31.7458 32.5201 28.892 34.7121 25.578 35.9771C22.264 37.242 18.6386 37.5231 15.1603 36.7847C11.682 36.0463 8.50706 34.3217 6.03697 31.8289C3.56689 29.3361 1.91263 26.1872 1.28342 22.7803C0.439853 18.2129 1.49678 13.5066 4.22176 9.6967C6.94673 5.88675 11.1166 3.28505 15.8144 2.46376Z" fill="#007BFD"/>
</g>
<path d="M26.917 12.2752C25.6396 12.7449 9.87797 18.7978 9.64502 18.9105C8.87479 19.275 8.78461 19.7559 9.4271 20.0828C9.49097 20.1166 10.5543 20.4547 11.7979 20.8417L14.056 21.5443L19.1809 18.3356C22.0026 16.5735 24.3659 15.1082 24.4335 15.0856C24.6101 15.0255 24.7604 15.0293 24.828 15.1007C24.8768 15.1495 24.8806 15.1721 24.8393 15.2434C24.8167 15.2923 22.9419 16.9943 20.68 19.0232C18.4182 21.0559 16.5583 22.7316 16.5508 22.7504C16.5433 22.7692 16.4682 23.7836 16.3817 25.0047L16.2239 27.2215L16.3968 27.199C16.4907 27.1877 16.6372 27.1388 16.7236 27.09C16.8138 27.0449 17.3999 26.5114 18.0349 25.9065C18.6661 25.3016 19.2072 24.7943 19.2335 24.7868C19.2598 24.7755 20.2667 25.4894 21.4728 26.3724C22.6751 27.2553 23.7534 28.018 23.8699 28.0706C24.1742 28.2134 24.5124 28.2247 24.7341 28.1082C24.9332 28.003 25.1248 27.74 25.2075 27.4657C25.2375 27.3605 25.9289 24.1781 26.7367 20.3946C28.0855 14.0975 28.2095 13.4888 28.2095 13.1619C28.2095 12.8538 28.1982 12.7787 28.1156 12.6171C28.0592 12.5007 27.9578 12.3842 27.8601 12.3166C27.6384 12.1625 27.2702 12.1437 26.917 12.2752Z" fill="white"/>
<defs>
<filter id="filter0_d_166_3976" x="0" y="0.1875" width="44" height="43" filterUnits="userSpaceOnUse" color-interpolation-filters="sRGB">
<feFlood flood-opacity="0" result="BackgroundImageFix"/>
<feColorMatrix in="SourceAlpha" type="matrix" values="0 0 0 0 0 0 0 0 0 0 0 0 0 0 0 0 0 0 127 0" result="hardAlpha"/>
<feOffset dx="3" dy="2"/>
<feGaussianBlur stdDeviation="2"/>
<feComposite in2="hardAlpha" operator="out"/>
<feColorMatrix type="matrix" values="0 0 0 0 0 0 0 0 0 0 0 0 0 0 0 0 0 0 0.2 0"/>
<feBlend mode="normal" in2="BackgroundImageFix" result="effect1_dropShadow_166_3976"/>
<feBlend mode="normal" in="SourceGraphic" in2="effect1_dropShadow_166_3976" result="shape"/>
</filter>
</defs>
</svg>
